PathFileType	4	(X/Y/Z)	C:/Users/beibeiliu/ov580/test_trc/User3\sequence.37_training_dense_left.trc
DataRate	CameraRate	NumFrames	NumMarkers	Units	OrigDataRate	OrigDataStartFrame	OrigNumFrames
120	120	17	19	mm	120	54	80
Frame#	Time	ThumbCMC			ThumbMCP			ThumbIP			ThumbTip			IndexMCP			IndexPIP			IndexTip			MiddleMCP			MiddlePIP			MiddleTip			RingMCP			RingPIP			RingTip			PinkyMCP			PinkyPIP			PinkyTip			BackHand1			BackHand2			BackHand3	
		X0	Y0	Z0	X1	Y1	Z1	X2	Y2	Z2	X3	Y3	Z3	X4	Y4	Z4	X5	Y5	Z5	X6	Y6	Z6	X7	Y7	Z7	X8	Y8	Z8	X9	Y9	Z9	X10	Y10	Z10	X11	Y11	Z11	X12	Y12	Z12	X13	Y13	Z13	X14	Y14	Z14	X15	Y15	Z15	X16	Y16	Z16	X17	Y17	Z17	X18	Y18	Z18	
53	0.441667	-202.203	-6.95582	-4.47314	-199.494	2.12016	-37.396	-198.293	13.3936	-65.5709	-194.747	14.8278	-85.322	-247.33	-42.763	-59.2154	-251.968	-50.4472	-89.3809	-247.155	-54.5458	-113.033	-254.224	-59.2759	-63.4997	-258.215	-66.4869	-93.7205	-245.35	-70.2239	-124.541	-242.838	-72.3181	-54.8428	-247.723	-80.8327	-80.1934	-243.568	-83.0239	-107.26	-225.887	-84.7132	-42.4247	-232.846	-86.0761	-66.7923	-236.259	-88.8924	-89.2516	-228.126	-70.2172	-0.73852	-218.508	-65.3007	23.393	-232.509	-33.0762	1.61797	
54	0.45	-182.812	-0.954752	-3.97878	-170.636	1.66725	-28.8582	-158.971	11.4532	-56.5164	-152.893	11.385	-76.8623	-235.289	1.61599	-59.9026	-242.383	-0.527614	-92.3657	-239.991	-6.69259	-113.686	-253.097	-10.3818	-61.1585	-256.201	-9.38553	-94.8461	-247	-20.306	-125.872	-253.942	-28.9111	-54.1482	-261.125	-30.6288	-84.0204	-255.248	-34.5717	-109.109	-250.812	-44.5969	-45.0879	-254.752	-43.0619	-67.419	-253.454	-43.6049	-91.1964	-244.046	-30.5624	-2.67462	-233.227	-36.9639	24.8174	-219.501	-3.2296	3.67933	
55	0.458333	-172.6	-1.62455	-1.66949	-153.591	-2.08149	-27.8211	-140.233	-1.42426	-51.3237	-124.818	-1.59267	-71.1094	-212.553	29.3807	-59.1111	-217.938	32.1226	-90.3039	-220.138	28.0602	-115.642	-231.865	31.1696	-62.0955	-235.346	35.8579	-95.0462	-235.87	22.0974	-123.487	-242.236	15.3735	-54.3165	-251.564	18.203	-87.5319	-249.904	11.2556	-111.682	-253.499	-2.35158	-46.2138	-254.04	2.21054	-67.5896	-256.441	-0.763413	-97.1558	-235.599	6.13631	-5.14215	-231.767	-1.81901	20.4866	-205.581	16.995	6.4543	
56	0.466667	-165.491	1.86164	-6.9142	-146.515	-4.71941	-29.3995	-129.674	-7.79632	-52.993	-118.477	-13.3075	-69.4014	-195.011	42.7605	-67.2846	-197.788	45.7991	-95.3178	-201.017	43.8431	-119.101	-215.235	50.0274	-68.8	-219.313	53.2516	-100.659	-222.797	40.2762	-131.858	-229.949	36.9114	-59.469	-236.843	43.2118	-91.7806	-235.402	36.8442	-119.214	-243.004	21.4562	-48.5706	-245.153	28.3913	-71.221	-248.795	28.9847	-99.3555	-230.377	28.3833	-13.4987	-228.071	17.2775	18.3305	-192.682	27.229	-3.32416	
57	0.475	-163.312	1.69677	-9.52484	-146.936	-6.72358	-33.2507	-132.646	-13.0692	-61.0506	-121.603	-20.2275	-77.2017	-184.081	43.3147	-79.0291	-189.642	44.8831	-105.184	-192.206	41.2751	-130.518	-203.961	54.1967	-77.9398	-206.106	56.682	-106.014	-211.205	40.9746	-141.607	-218.43	47.7258	-72.1746	-221.65	52.2532	-99.2857	-224.807	44.2008	-123.735	-236.006	33.9102	-57.6067	-238.433	40.4631	-82.9557	-239.928	42.679	-104.736	-220.352	36.1289	-19.4837	-215.488	30.0778	8.62033	-185.377	32.7044	-8.51389	
58	0.483333	-153.512	0.139959	-14.3058	-142.283	-11.5405	-38.71	-127.736	-21.4574	-60.6768	-117.457	-30.7407	-81.2871	-174.424	36.3062	-85.4187	-179.15	35.0853	-113.201	-185.374	27.2458	-141.718	-193.136	47.8337	-86.6559	-195.425	45.6784	-122.058	-200.931	28.3301	-150.882	-209.299	45.0023	-78.4027	-213.123	46.3442	-109.451	-216.027	35.937	-132.502	-227.058	36.6357	-66.6466	-225.908	38.9829	-89.2531	-227.934	38.1656	-115.691	-205.639	41.2408	-30.7111	-208.133	35.7422	1.50781	-176.338	34.8828	-18.5518	
59	0.491667	-145.885	-6.2148	-16.3691	-135.417	-21.6902	-39.6918	-122.489	-35.3053	-61.0459	-115.025	-47.4913	-80.8564	-162.72	20.3107	-97.8883	-166.187	12.1844	-125.206	-175.648	2.79663	-142.763	-182.405	34.1635	-99.8149	-183.391	26.8577	-127.689	-195.504	4.94624	-152.789	-198.264	34.3185	-91.1877	-200.713	28.3905	-119.892	-209.907	12.1507	-143.546	-216.375	28.224	-73.0097	-217.083	27.008	-102.134	-218.079	20.3297	-120.666	-198.662	38.8198	-34.7863	-197.731	38.7734	-7.49621	-161.519	28.881	-26.3778	
60	0.5	-138.264	-15.0132	-16.2412	-129.417	-33.7527	-36.133	-114.2	-53.8221	-58.052	-109.559	-66.5454	-72.2509	-155.019	-0.856041	-94.928	-161.502	-11.8082	-122.858	-172.853	-30.779	-144.109	-168.984	11.1073	-104.118	-176.266	0.125187	-130.003	-186.277	-29.5983	-153.685	-188.971	15.4095	-95.6359	-195.938	5.45327	-122.852	-201.679	-14.5592	-140.497	-205.071	13.6485	-79.0791	-209.76	8.58319	-103.533	-212.885	-1.04358	-124.6	-184.56	28.2522	-46.1922	-184.365	32.206	-12.9595	-157.161	18.6875	-31.3301	
61	0.508333	-130.959	-20.757	-15.437	-120.333	-42.8599	-29.984	-107.099	-63.5914	-45.6317	-98.2356	-81.1981	-60.1282	-151.328	-18.2434	-94.1029	-157.262	-36.4039	-119.976	-163.158	-60.5536	-133.636	-165.185	-9.65791	-105.869	-173.335	-28.0767	-130.144	-182.89	-59.7762	-142.011	-186.72	-3.49835	-95.3452	-189.768	-19.5191	-121.01	-201.549	-44.9804	-133.916	-202.578	-1.49154	-82.9024	-204.061	-14.4618	-104.36	-206.578	-32.695	-118.653	-180.761	17.4978	-50.0914	-179.309	25.322	-20.815	-145.076	11.3729	-32.3567	
62	0.516667	-126.615	-17.9338	-11.3343	-113.207	-43.1179	-25.9259	-100.574	-62.2915	-35.2645	-88.7756	-81.8234	-48.21	-146.201	-34.5631	-92.0297	-149.106	-56.273	-110.191	-157.473	-86.4002	-114.974	-162.132	-28.288	-99.5635	-165.019	-55.6567	-120.57	-175.228	-87.7259	-121.92	-182.913	-25.1143	-93.1158	-183.446	-44.985	-112.463	-191.514	-77.1201	-117.104	-198.516	-21.6347	-77.0615	-200.229	-39.6533	-96.2815	-201.502	-64.1336	-106.828	-177.81	9.53489	-46.5645	-177.659	19.511	-22.1761	-146.462	7.44345	-34.5101	
63	0.525	-127.098	-9.65169	-10.07	-108.97	-32.282	-18.5215	-91.3828	-51.183	-27.5428	-76.6945	-69.1191	-35.3714	-139.768	-40.226	-84.4253	-137.866	-68.9203	-99.297	-135.883	-97.9464	-96.2663	-158.381	-42.0451	-94.0547	-153.681	-68.8695	-107.189	-150.583	-105.27	-99.9246	-176.666	-38.9545	-83.5742	-172.601	-65.8779	-101.112	-173.456	-95.5729	-98.7417	-192.138	-36.9468	-67.9933	-191.484	-59.0241	-85.6895	-181.734	-84.515	-89.3569	-180.708	-0.570525	-46.6326	-189.769	16.5314	-22.8975	-150.12	8.79045	-37.4683	
64	0.533333	-131.549	7.05045	-12.8836	-106.437	-8.48562	-14.5568	-78.4386	-23.77	-25.9281	-64.1787	-35.6956	-29.1164	-132.926	-34.5633	-82.1089	-120.292	-61.9883	-92.2373	-108.182	-83.3553	-86.6007	-146.974	-39.5592	-89.3236	-135.032	-69.9187	-98.8796	-121.724	-100.466	-86.717	-167.973	-46.3041	-80.8735	-155.663	-69.8856	-92.0929	-141.597	-97.3441	-84.7694	-180.172	-46.4244	-63.0999	-171.658	-67.7728	-77.6418	-160.892	-91.0346	-77.9616	-186.064	-5.88223	-45.9094	-194.992	9.47891	-22.8842	-158.034	13.89	-36.4701	
65	0.541667	-139.555	28.2817	-16.2944	-108.178	21.161	-23.743	-83.9639	18.5236	-27.3797	-61.9258	15.44	-34.3683	-129.65	-14.0153	-79.9398	-108.207	-39.2313	-89.5149	-85.9116	-57.7334	-84.4263	-138.369	-29.2343	-87.4325	-117.724	-53.7443	-94.8476	-94.6481	-73.5856	-84.1284	-150.213	-40.3042	-76.3569	-131.077	-61.3614	-85.6552	-110.711	-80.8497	-78.2664	-163.136	-47.6557	-60.3736	-150.058	-66.2112	-70.1696	-126.36	-76.1761	-72.9066	-186.299	-9.15036	-41.6735	-201.674	1.01523	-24.4045	-172.309	19.9568	-38.5943	
66	0.55	-154.274	46.1574	-21.9215	-126.643	53.0056	-29.2494	-100.258	58.8165	-40.1865	-79.9198	65.775	-46.8418	-131.5	4.56777	-83.1573	-103.982	-9.54033	-93.8858	-75.8797	-17.3676	-90.2929	-133.51	-17.1853	-88.1247	-107.528	-23.9715	-98.0224	-71.7932	-34.9587	-86.4079	-138.585	-30.4652	-74.8462	-115.028	-43.5266	-84.4587	-88.5363	-47.847	-81.2156	-149.748	-40.6019	-54.9146	-128.371	-48.2932	-67.323	-104.614	-57.5346	-71.2397	-183.912	-10.4165	-41.6227	-198.354	-5.9716	-21.0025	-182.69	22.5944	-40.6363	
67	0.558333	-174.902	54.5342	-28.7791	-152.382	69.8397	-37.9042	-132.188	87.4715	-53.4054	-114.267	96.1168	-63.6268	-135.827	17.115	-85.2454	-107.965	17.5559	-97.3308	-80.1673	21.2491	-98.5135	-129.913	-1.28229	-87.269	-99.895	0.502491	-98.6682	-67.9947	6.50866	-92.71	-128.912	-14.5184	-74.659	-100.053	-14.9383	-85.4888	-73.594	-9.01299	-84.7692	-129.491	-26.4214	-57.0971	-108.27	-27.176	-68.1247	-85.2447	-22.1778	-75.9635	-177.009	-13.358	-41.5909	-190.758	-10.0641	-20.3884	-188.745	18.9071	-42.5607	
68	0.566667	-194.065	50.1461	-32.5379	-181.484	73.6489	-46.5302	-170.2	91.3615	-62.4434	-161.25	110.404	-75.4062	-141.625	28.7958	-92.078	-114.394	38.3169	-104.852	-92.9763	48.9951	-105.688	-130.045	12.0646	-91.5508	-105.416	23.4367	-103.126	-79.6133	46.5863	-103.819	-125.805	3.16762	-77.0736	-100.01	11.3865	-90.6544	-76.2456	24.0398	-92.9816	-118.123	-8.40143	-57.0632	-101.791	0.153564	-72.2416	-85.8026	10.037	-84.0633	-163.913	-11.3558	-43.7059	-179.708	-17.2425	-18.4587	-188.491	10.4882	-43.7458	
69	0.575	-204.639	37.0667	-34.3782	-204.204	63.3452	-54.9678	-204.742	84.6646	-73.4503	-203.83	102.674	-85.0004	-156.05	32.9685	-100.986	-133.274	48.6861	-114.61	-116.784	66.0434	-119.917	-134.618	21.588	-99.5548	-117.616	37.232	-113.931	-100.243	69.7695	-119.272	-125.076	14.1149	-83.0791	-107.804	25.76	-100.023	-93.4029	49.2649	-109.824	-116.896	9.83793	-65.0634	-106.708	20.3027	-81.4781	-93.6431	29.2568	-94.828	-157.043	-9.65596	-41.9726	-168.329	-15.6538	-14.8751	-188.314	3.46902	-44.0756	
